<svg width="30" height="30" viewBox="0 0 30 30" fill="none" xmlns="http://www.w3.org/2000/svg">
<path d="M13.1486 30C12.4396 30 11.829 29.775 11.317 29.325C10.8049 28.875 10.4963 28.325 10.3913 27.675L10.0368 25.2C9.69538 25.075 9.37369 24.925 9.07169 24.75C8.7697 24.575 8.47427 24.3875 8.1854 24.1875L5.74317 25.1625C5.08666 25.4375 4.43015 25.4625 3.77363 25.2375C3.11712 25.0125 2.60504 24.6125 2.2374 24.0375L0.386029 20.9625C0.0183824 20.3875 -0.0866597 19.775 0.0709034 19.125C0.228466 18.475 0.582983 17.9375 1.13445 17.5125L3.22216 16.0125C3.1959 15.8375 3.18277 15.6688 3.18277 15.5063V14.4938C3.18277 14.3313 3.1959 14.1625 3.22216 13.9875L1.13445 12.4875C0.582983 12.0625 0.228466 11.525 0.0709034 10.875C-0.0866597 10.225 0.0183824 9.6125 0.386029 9.0375L2.2374 5.9625C2.60504 5.3875 3.11712 4.9875 3.77363 4.7625C4.43015 4.5375 5.08666 4.5625 5.74317 4.8375L8.1854 5.8125C8.47427 5.6125 8.77626 5.425 9.09139 5.25C9.40651 5.075 9.72164 4.925 10.0368 4.8L10.3913 2.325C10.4963 1.675 10.8049 1.125 11.317 0.675C11.829 0.225 12.4396 0 13.1486 0H16.8514C17.5604 0 18.171 0.225 18.683 0.675C19.1951 1.125 19.5037 1.675 19.6087 2.325L19.9632 4.8C20.3046 4.925 20.6263 5.075 20.9283 5.25C21.2303 5.425 21.5257 5.6125 21.8146 5.8125L24.2568 4.8375C24.9133 4.5625 25.5699 4.5375 26.2264 4.7625C26.8829 4.9875 27.395 5.3875 27.7626 5.9625L29.614 9.0375C29.9816 9.6125 30.0867 10.225 29.9291 10.875C29.7715 11.525 29.417 12.0625 28.8655 12.4875L26.7778 13.9875C26.8041 14.1625 26.8172 14.3313 26.8172 14.4938V15.5063C26.8172 15.6688 26.791 15.8375 26.7384 16.0125L28.8262 17.5125C29.3776 17.9375 29.7321 18.475 29.8897 19.125C30.0473 19.775 29.9422 20.3875 29.5746 20.9625L27.6838 24.0375C27.3162 24.6125 26.8041 25.0125 26.1476 25.2375C25.4911 25.4625 24.8346 25.4375 24.178 25.1625L21.8146 24.1875C21.5257 24.3875 21.2237 24.575 20.9086 24.75C20.5935 24.925 20.2784 25.075 19.9632 25.2L19.6087 27.675C19.5037 28.325 19.1951 28.875 18.683 29.325C18.171 29.775 17.5604 30 16.8514 30H13.1486ZM13.4244 27H16.5362L17.0877 23.025C17.9018 22.825 18.6568 22.5312 19.3527 22.1438C20.0486 21.7563 20.6854 21.2875 21.2631 20.7375L25.1628 22.275L26.6991 19.725L23.3114 17.2875C23.4428 16.9375 23.5347 16.5688 23.5872 16.1813C23.6397 15.7938 23.666 15.4 23.666 15C23.666 14.6 23.6397 14.2063 23.5872 13.8188C23.5347 13.4313 23.4428 13.0625 23.3114 12.7125L26.6991 10.275L25.1628 7.725L21.2631 9.3C20.6854 8.725 20.0486 8.24375 19.3527 7.85625C18.6568 7.46875 17.9018 7.175 17.0877 6.975L16.5756 3H13.4638L12.9123 6.975C12.0982 7.175 11.3432 7.46875 10.6473 7.85625C9.95142 8.24375 9.3146 8.7125 8.73687 9.2625L4.83719 7.725L3.30095 10.275L6.68855 12.675C6.55725 13.05 6.46534 13.425 6.41282 13.8C6.36029 14.175 6.33403 14.575 6.33403 15C6.33403 15.4 6.36029 15.7875 6.41282 16.1625C6.46534 16.5375 6.55725 16.9125 6.68855 17.2875L3.30095 19.725L4.83719 22.275L8.73687 20.7C9.3146 21.275 9.95142 21.7563 10.6473 22.1438C11.3432 22.5312 12.0982 22.825 12.9123 23.025L13.4244 27ZM15.0788 20.25C16.6019 20.25 17.9018 19.7375 18.9785 18.7125C20.0551 17.6875 20.5935 16.45 20.5935 15C20.5935 13.55 20.0551 12.3125 18.9785 11.2875C17.9018 10.2625 16.6019 9.75 15.0788 9.75C13.5294 9.75 12.223 10.2625 11.1594 11.2875C10.0959 12.3125 9.56408 13.55 9.56408 15C9.56408 16.45 10.0959 17.6875 11.1594 18.7125C12.223 19.7375 13.5294 20.25 15.0788 20.25Z" fill="white"/>
</svg>
