<svg width="31" height="17" viewBox="0 0 31 17" fill="none" xmlns="http://www.w3.org/2000/svg">
<path d="M8.41424 3.3657C7.93743 3.3657 7.53776 3.20442 7.21521 2.88188C6.89266 2.55933 6.73139 2.15965 6.73139 1.68285C6.73139 1.20604 6.89266 0.806365 7.21521 0.483819C7.53776 0.161273 7.93743 0 8.41424 0H28.6084C29.0852 0 29.4849 0.161273 29.8074 0.483819C30.13 0.806365 30.2913 1.20604 30.2913 1.68285C30.2913 2.15965 30.13 2.55933 29.8074 2.88188C29.4849 3.20442 29.0852 3.3657 28.6084 3.3657H8.41424ZM8.41424 10.0971C7.93743 10.0971 7.53776 9.93581 7.21521 9.61327C6.89266 9.29072 6.73139 8.89105 6.73139 8.41424C6.73139 7.93743 6.89266 7.53776 7.21521 7.21521C7.53776 6.89266 7.93743 6.73139 8.41424 6.73139H28.6084C29.0852 6.73139 29.4849 6.89266 29.8074 7.21521C30.13 7.53776 30.2913 7.93743 30.2913 8.41424C30.2913 8.89105 30.13 9.29072 29.8074 9.61327C29.4849 9.93581 29.0852 10.0971 28.6084 10.0971H8.41424ZM8.41424 16.8285C7.93743 16.8285 7.53776 16.6672 7.21521 16.3447C6.89266 16.0221 6.73139 15.6224 6.73139 15.1456C6.73139 14.6688 6.89266 14.2691 7.21521 13.9466C7.53776 13.6241 7.93743 13.4628 8.41424 13.4628H28.6084C29.0852 13.4628 29.4849 13.6241 29.8074 13.9466C30.13 14.2691 30.2913 14.6688 30.2913 15.1456C30.2913 15.6224 30.13 16.0221 29.8074 16.3447C29.4849 16.6672 29.0852 16.8285 28.6084 16.8285H8.41424ZM1.68285 3.3657C1.20604 3.3657 0.806365 3.20442 0.483819 2.88188C0.161273 2.55933 0 2.15965 0 1.68285C0 1.20604 0.161273 0.806365 0.483819 0.483819C0.806365 0.161273 1.20604 0 1.68285 0C2.15965 0 2.55933 0.161273 2.88188 0.483819C3.20442 0.806365 3.3657 1.20604 3.3657 1.68285C3.3657 2.15965 3.20442 2.55933 2.88188 2.88188C2.55933 3.20442 2.15965 3.3657 1.68285 3.3657ZM1.68285 10.0971C1.20604 10.0971 0.806365 9.93581 0.483819 9.61327C0.161273 9.29072 0 8.89105 0 8.41424C0 7.93743 0.161273 7.53776 0.483819 7.21521C0.806365 6.89266 1.20604 6.73139 1.68285 6.73139C2.15965 6.73139 2.55933 6.89266 2.88188 7.21521C3.20442 7.53776 3.3657 7.93743 3.3657 8.41424C3.3657 8.89105 3.20442 9.29072 2.88188 9.61327C2.55933 9.93581 2.15965 10.0971 1.68285 10.0971ZM1.68285 16.8285C1.20604 16.8285 0.806365 16.6672 0.483819 16.3447C0.161273 16.0221 0 15.6224 0 15.1456C0 14.6688 0.161273 14.2691 0.483819 13.9466C0.806365 13.6241 1.20604 13.4628 1.68285 13.4628C2.15965 13.4628 2.55933 13.6241 2.88188 13.9466C3.20442 14.2691 3.3657 14.6688 3.3657 15.1456C3.3657 15.6224 3.20442 16.0221 2.88188 16.3447C2.55933 16.6672 2.15965 16.8285 1.68285 16.8285Z" fill="white"/>
</svg>
