<svg width="26" height="26" viewBox="0 0 26 26" fill="none" xmlns="http://www.w3.org/2000/svg">
<path d="M13 26C9.37083 26 6.29688 24.7406 3.77812 22.2219C1.25937 19.7031 0 16.6292 0 13C0 9.37083 1.25937 6.29688 3.77812 3.77812C6.29688 1.25937 9.37083 0 13 0C14.8687 0 16.6562 0.385937 18.3625 1.15781C20.0687 1.92969 21.5312 3.03333 22.75 4.46875V1.625C22.75 1.16458 22.9057 0.778646 23.2172 0.467187C23.5286 0.155729 23.9146 0 24.375 0C24.8354 0 25.2214 0.155729 25.5328 0.467187C25.8443 0.778646 26 1.16458 26 1.625V9.75C26 10.2104 25.8443 10.5964 25.5328 10.9078C25.2214 11.2193 24.8354 11.375 24.375 11.375H16.25C15.7896 11.375 15.4036 11.2193 15.0922 10.9078C14.7807 10.5964 14.625 10.2104 14.625 9.75C14.625 9.28958 14.7807 8.90365 15.0922 8.59219C15.4036 8.28073 15.7896 8.125 16.25 8.125H21.45C20.5833 6.60833 19.3984 5.41667 17.8953 4.55C16.3922 3.68333 14.7604 3.25 13 3.25C10.2917 3.25 7.98958 4.19792 6.09375 6.09375C4.19792 7.98958 3.25 10.2917 3.25 13C3.25 15.7083 4.19792 18.0104 6.09375 19.9062C7.98958 21.8021 10.2917 22.75 13 22.75C14.8417 22.75 16.5276 22.2828 18.0578 21.3484C19.588 20.4141 20.7729 19.1615 21.6125 17.5906C21.8292 17.2115 22.1339 16.9474 22.5266 16.7984C22.9193 16.6495 23.3187 16.6427 23.725 16.7781C24.1583 16.9135 24.4698 17.1979 24.6594 17.6312C24.849 18.0646 24.8354 18.4708 24.6187 18.85C23.5083 21.0167 21.924 22.75 19.8656 24.05C17.8073 25.35 15.5187 26 13 26Z" fill="white"/>
</svg>
