<svg width="30" height="30" viewBox="0 0 30 30" fill="none" xmlns="http://www.w3.org/2000/svg">
<path d="M3.33333 30C2.41667 30 1.63194 29.6736 0.979167 29.0208C0.326389 28.3681 0 27.5833 0 26.6667V21.6667C0 21.1944 0.159722 20.7986 0.479167 20.4792C0.798611 20.1597 1.19444 20 1.66667 20C2.13889 20 2.53472 20.1597 2.85417 20.4792C3.17361 20.7986 3.33333 21.1944 3.33333 21.6667V26.6667H26.6667V3.33333H3.33333V8.33333C3.33333 8.80556 3.17361 9.20139 2.85417 9.52083C2.53472 9.84028 2.13889 10 1.66667 10C1.19444 10 0.798611 9.84028 0.479167 9.52083C0.159722 9.20139 0 8.80556 0 8.33333V3.33333C0 2.41667 0.326389 1.63194 0.979167 0.979167C1.63194 0.326389 2.41667 0 3.33333 0H26.6667C27.5833 0 28.3681 0.326389 29.0208 0.979167C29.6736 1.63194 30 2.41667 30 3.33333V26.6667C30 27.5833 29.6736 28.3681 29.0208 29.0208C28.3681 29.6736 27.5833 30 26.6667 30H3.33333ZM14.4167 16.6667H1.66667C1.19444 16.6667 0.798611 16.5069 0.479167 16.1875C0.159722 15.8681 0 15.4722 0 15C0 14.5278 0.159722 14.1319 0.479167 13.8125C0.798611 13.4931 1.19444 13.3333 1.66667 13.3333H14.4167L11.3333 10.25C11 9.91667 10.8403 9.52778 10.8542 9.08333C10.8681 8.63889 11.0278 8.25 11.3333 7.91667C11.6667 7.58333 12.0625 7.40972 12.5208 7.39583C12.9792 7.38194 13.375 7.54167 13.7083 7.875L19.6667 13.8333C19.8333 14 19.9514 14.1806 20.0208 14.375C20.0903 14.5694 20.125 14.7778 20.125 15C20.125 15.2222 20.0903 15.4306 20.0208 15.625C19.9514 15.8194 19.8333 16 19.6667 16.1667L13.7083 22.125C13.375 22.4583 12.9792 22.6181 12.5208 22.6042C12.0625 22.5903 11.6667 22.4167 11.3333 22.0833C11.0278 21.75 10.8681 21.3611 10.8542 20.9167C10.8403 20.4722 11 20.0833 11.3333 19.75L14.4167 16.6667Z" fill="white"/>
</svg>
